<?xml version="1.0" standalone="no"?>
<!DOCTYPE svg PUBLIC "-//W3C//DTD SVG 20010904//EN"
 "http://www.w3.org/TR/2001/REC-SVG-20010904/DTD/svg10.dtd">
<svg version="1.0" xmlns="http://www.w3.org/2000/svg"
 width="512.000000pt" height="512.000000pt" viewBox="0 0 512.000000 512.000000"
 preserveAspectRatio="xMidYMid meet">
<metadata>
Created by potrace 1.11, written by Peter Selinger 2001-2013
</metadata>
<g transform="translate(0.000000,512.000000) scale(0.100000,-0.100000)"
fill="#000000" stroke="none">
<path d="M4417 4954 c-1 -1 -42 -4 -92 -8 -49 -3 -124 -9 -165 -13 -41 -4 -94
-8 -117 -8 -23 0 -39 -2 -37 -5 3 -2 -30 -10 -73 -16 -137 -21 -156 -24 -258
-45 -274 -57 -459 -119 -685 -227 -205 -99 -363 -229 -528 -434 -34 -42 -62
-81 -62 -86 0 -6 -4 -12 -8 -14 -17 -6 -83 -141 -114 -231 -27 -78 -32 -108
-33 -199 -2 -105 6 -154 39 -248 20 -52 96 -178 125 -204 l21 -19 -29 -36
c-64 -81 -168 -263 -162 -284 5 -23 -24 7 -103 105 l-87 108 16 60 c46 178
-31 363 -208 493 -205 153 -363 198 -676 191 -97 -2 -187 -5 -201 -7 -14 -3
-50 -8 -80 -12 -102 -13 -394 -78 -409 -92 -5 -4 25 -27 59 -45 61 -32 230
-160 224 -170 -4 -6 -3 -8 3 -5 14 9 89 -67 133 -135 21 -32 72 -128 114 -213
42 -84 87 -171 101 -191 55 -81 143 -163 215 -199 94 -48 231 -55 331 -16 50
19 199 114 199 126 0 9 -103 150 -153 210 -70 84 -278 285 -294 285 -2 0 -11
7 -20 16 -23 23 -150 106 -218 143 -84 46 -87 52 -14 35 207 -47 407 -170 609
-373 136 -137 219 -249 279 -375 52 -107 87 -204 82 -221 -9 -25 -32 -142 -37
-189 -4 -28 -8 -54 -10 -57 -2 -4 -7 -56 -10 -117 l-7 -110 33 -17 c67 -34
249 -29 279 9 5 6 11 81 15 166 3 85 8 169 11 185 3 17 9 59 15 95 20 134 33
192 72 325 85 286 335 716 598 1030 109 130 304 313 395 370 17 11 32 22 35
26 7 8 163 99 171 99 3 0 -48 -55 -115 -122 -193 -196 -353 -406 -515 -675
-33 -56 -61 -107 -61 -113 0 -5 -4 -10 -10 -10 -5 0 -10 -5 -10 -11 0 -6 -16
-43 -36 -82 -55 -109 -113 -243 -144 -332 l-28 -79 26 -16 c30 -17 139 -53
217 -71 82 -19 251 -20 335 -3 82 17 223 80 273 122 122 102 221 235 281 379
27 64 66 196 67 225 0 4 5 22 10 40 5 18 12 53 15 78 3 25 7 52 9 60 3 8 7 32
11 54 3 21 8 48 10 60 4 21 14 77 19 106 2 8 8 33 14 55 6 22 12 49 14 60 9
53 51 164 83 223 78 143 252 369 415 538 27 29 49 55 49 58 0 5 -207 5 -213 0z"/>
<path d="M1748 2534 c-2 -1 -30 -5 -62 -8 -32 -4 -63 -9 -67 -12 -5 -3 -9 1
-9 8 0 9 -2 10 -8 2 -4 -7 -25 -14 -47 -17 -22 -4 -65 -11 -95 -17 -30 -6 -66
-14 -80 -16 -178 -35 -408 -130 -493 -204 -86 -76 -89 -87 -85 -355 l3 -233
31 -39 c17 -21 51 -53 75 -70 24 -18 51 -38 61 -45 10 -9 18 -34 22 -73 19
-202 79 -418 174 -627 33 -70 135 -218 184 -264 89 -84 212 -157 320 -188 149
-44 209 -49 543 -50 377 -1 464 7 610 56 281 94 466 316 586 703 23 74 55 215
63 275 4 25 8 54 10 65 3 11 5 37 5 57 1 33 6 41 44 64 59 37 105 83 128 126
17 33 19 60 19 253 0 239 -5 263 -63 323 -102 106 -377 209 -687 258 -19 3
-46 7 -60 10 -14 2 -46 7 -71 10 -46 4 -46 4 -53 -28 -4 -18 -9 -64 -12 -103
-3 -38 -7 -76 -9 -83 -6 -16 5 -20 73 -26 29 -3 63 -8 75 -11 12 -2 40 -7 62
-11 83 -12 102 -16 180 -35 175 -43 268 -90 258 -129 -12 -45 -109 -88 -281
-124 -68 -14 -149 -29 -180 -32 -31 -3 -59 -7 -61 -10 -2 -2 -11 2 -19 9 -13
9 -14 9 -8 0 5 -9 -2 -13 -26 -14 -18 0 -42 -2 -53 -4 -42 -8 -338 -19 -520
-19 -178 1 -353 7 -470 19 -27 2 -75 7 -105 10 -58 5 -103 11 -160 22 -19 3
-42 7 -50 8 -150 21 -304 80 -327 126 -11 21 -10 27 10 45 35 34 227 97 357
118 53 9 93 16 115 21 20 4 141 18 162 18 11 0 16 22 29 132 3 28 9 64 14 82
8 30 7 32 -21 31 -16 -1 -30 -2 -31 -4z"/>
</g>
</svg>
